<svg viewBox="0 0 148 49" xmlns="http://www.w3.org/2000/svg" data-logo="logo">
        <g transform="translate(40, 1) rotate(90) translate(23.5, 20) scale(-1, 1) translate(-23.5, -20)" id="logogram" style="opacity: 1;"><path fill="#FFFFFF" d="M21.3474 0.349945L46.7544 25.7266V39.3499H34.8978V30.624L16.4444 12.1924H12.611V39.3499H0.754395V0.349945H21.3474ZM34.8978 13.8842V0.349945H46.7544V13.8842H34.8978Z"></path></g>
        <g transform="translate(46, 4)" id="logotype" style="opacity: 1;"><path d="M18.85 20.82L12.15 28.24L12.15 23.49Q12.94 22.07 13.69 20.88Q14.44 19.68 15.35 18.47Q16.25 17.27 17.42 15.85L17.42 15.85L23.65 8.54L30.03 8.54L19.28 20.98L18.85 20.82ZM13.52 34L8.31 34L8.31 8.54L13.52 8.54L13.52 15.49L13.42 21.99L13.52 24.53L13.52 34ZM30.30 34L24.13 34L16.58 22.52L19.88 18.62L30.30 34ZM39.72 34.38L39.72 34.38Q36.79 34.38 34.67 33.18Q32.56 31.98 31.42 29.78Q30.28 27.57 30.28 24.55L30.28 24.55Q30.28 21.59 31.41 19.37Q32.54 17.15 34.61 15.90Q36.67 14.65 39.46 14.65L39.46 14.65Q41.34 14.65 42.96 15.25Q44.59 15.85 45.82 17.06Q47.05 18.26 47.74 20.07Q48.43 21.88 48.43 24.34L48.43 24.34L48.43 25.78L32.38 25.78L32.38 22.57L45.92 22.57L43.53 23.42Q43.53 21.93 43.07 20.83Q42.62 19.73 41.72 19.12Q40.83 18.52 39.49 18.52L39.49 18.52Q38.18 18.52 37.25 19.13Q36.32 19.75 35.84 20.80Q35.36 21.85 35.36 23.20L35.36 23.20L35.36 25.47Q35.36 27.13 35.91 28.26Q36.47 29.39 37.47 29.95Q38.47 30.51 39.80 30.51L39.80 30.51Q40.71 30.51 41.44 30.26Q42.18 30.00 42.70 29.50Q43.22 28.99 43.49 28.26L43.49 28.26L48.14 29.13Q47.68 30.70 46.54 31.89Q45.39 33.08 43.67 33.73Q41.95 34.38 39.72 34.38ZM49.52 40.77L49.52 40.77L50.70 36.91L51.34 37.06Q52.36 37.33 53.16 37.21Q53.97 37.09 54.45 36.56Q54.94 36.03 55.04 35.08L55.04 35.08L55.18 34.05L48.00 14.89L53.45 14.89L56.67 24.81Q57.25 26.69 57.62 28.57Q57.98 30.45 58.46 32.50L58.46 32.50L57.27 32.50Q57.73 30.45 58.19 28.56Q58.65 26.67 59.26 24.81L59.26 24.81L62.61 14.89L68.00 14.89L59.88 36.26Q59.30 37.79 58.39 38.92Q57.49 40.05 56.14 40.67Q54.79 41.28 52.87 41.28L52.87 41.28Q51.85 41.28 50.96 41.14Q50.07 40.99 49.52 40.77ZM68.46 8.54L73.58 8.54L73.58 34L68.46 34L68.46 8.54ZM80.79 34L75.67 34L75.67 14.89L80.79 14.89L80.79 34ZM78.23 12.40L78.23 12.40Q77.07 12.40 76.25 11.63Q75.43 10.86 75.43 9.77L75.43 9.77Q75.43 8.67 76.25 7.90Q77.07 7.13 78.23 7.13L78.23 7.13Q79.39 7.13 80.22 7.90Q81.05 8.66 81.05 9.77L81.05 9.77Q81.05 10.86 80.22 11.63Q79.39 12.40 78.23 12.40ZM91.42 34.38L91.42 34.38Q88.55 34.38 86.45 33.14Q84.35 31.90 83.21 29.68Q82.07 27.47 82.07 24.53L82.07 24.53Q82.07 21.56 83.21 19.35Q84.35 17.13 86.45 15.89Q88.55 14.65 91.42 14.65L91.42 14.65Q94.31 14.65 96.40 15.89Q98.50 17.13 99.63 19.35Q100.77 21.56 100.77 24.53L100.77 24.53Q100.77 27.47 99.63 29.68Q98.50 31.90 96.40 33.14Q94.31 34.38 91.42 34.38ZM91.42 30.34L91.42 30.34Q92.79 30.34 93.71 29.58Q94.63 28.82 95.10 27.50Q95.56 26.17 95.56 24.52L95.56 24.52Q95.56 22.82 95.10 21.51Q94.63 20.19 93.71 19.44Q92.79 18.69 91.42 18.69L91.42 18.69Q90.05 18.69 89.14 19.44Q88.23 20.19 87.76 21.51Q87.30 22.82 87.30 24.52L87.30 24.52Q87.30 26.17 87.76 27.50Q88.23 28.82 89.14 29.58Q90.05 30.34 91.42 30.34Z" fill="#FFFFFF"></path></g>

      </svg>